<?xml version="1.0" standalone="no"?>
<!DOCTYPE svg PUBLIC "-//W3C//DTD SVG 20010904//EN"
 "http://www.w3.org/TR/2001/REC-SVG-20010904/DTD/svg10.dtd">
<svg version="1.0" xmlns="http://www.w3.org/2000/svg"
 width="300.000000pt" height="168.000000pt" viewBox="0 0 300.000000 168.000000"
 preserveAspectRatio="xMidYMid meet">

<g transform="translate(0.000000,168.000000) scale(0.100000,-0.100000)"
fill="#000000" stroke="none">
<path d="M0 1645 l0 -35 1500 0 1500 0 0 35 0 35 -1500 0 -1500 0 0 -35z
m2937 -7 c-3 -8 -6 -5 -6 6 -1 11 2 17 5 13 3 -3 4 -12 1 -19z m43 7 c0 -8 -4
-15 -10 -15 -5 0 -7 7 -4 15 4 8 8 15 10 15 2 0 4 -7 4 -15z"/>
<path d="M350 530 l0 -100 90 0 90 0 0 100 0 100 -90 0 -90 0 0 -100z m60 80
c0 -12 -37 -14 -44 -2 -2 4 6 9 20 10 13 1 24 -3 24 -8z m77 -4 c4 -3 -10 -6
-30 -6 -20 0 -37 4 -37 10 0 10 56 7 67 -4z m-77 -55 c0 -5 -7 -14 -15 -21
-13 -11 -13 -15 -3 -21 10 -7 9 -9 -4 -9 -22 0 -23 13 -2 31 14 12 14 14 -3
20 -16 7 -15 8 5 8 12 1 22 -3 22 -8z m68 -78 c-21 -2 -55 -2 -75 0 -21 2 -4
4 37 4 41 0 58 -2 38 -4z"/>
<path d="M550 530 l0 -100 90 0 90 0 0 100 0 100 -90 0 -90 0 0 -100z m55 79
c4 -5 -3 -9 -14 -9 -26 0 -35 15 -11 17 11 1 22 -2 25 -8z m75 -1 c0 -4 -13
-8 -30 -8 -16 0 -30 5 -30 10 0 6 14 9 30 8 17 -1 30 -6 30 -10z m-81 -80 c-1
-18 -3 -25 -6 -15 -2 9 -9 14 -15 11 -6 -4 -5 2 1 15 16 29 21 26 20 -11z m79
-55 c-21 -2 -55 -2 -75 0 -21 2 -4 4 37 4 41 0 58 -2 38 -4z"/>
<path d="M750 530 l0 -100 95 0 95 0 0 100 0 100 -95 0 -95 0 0 -100z m147 77
c3 -4 -24 -6 -61 -6 -36 1 -66 4 -66 8 0 9 118 6 127 -2z m-97 -51 c0 -14 -21
-58 -26 -53 -3 3 -1 14 5 25 8 15 8 22 -2 25 -7 3 -5 6 6 6 9 1 17 -1 17 -3z
m78 -83 c-21 -2 -55 -2 -75 0 -21 2 -4 4 37 4 41 0 58 -2 38 -4z"/>
<path d="M1000 530 l0 -100 90 0 90 0 0 100 0 100 -90 0 -90 0 0 -100z m88 75
c3 -3 -12 -6 -34 -6 -38 -1 -38 -2 -9 -9 l30 -8 -32 -1 c-26 -1 -33 3 -33 17
0 15 7 18 36 15 20 -1 39 -5 42 -8z m-51 -52 c-4 -3 -2 -12 4 -19 13 -16 3
-34 -19 -33 -14 0 -13 2 3 9 18 7 18 9 3 15 -17 7 -14 35 5 35 6 0 7 -3 4 -7z
m81 -80 c-21 -2 -55 -2 -75 0 -21 2 -4 4 37 4 41 0 58 -2 38 -4z"/>
<path d="M1200 530 l0 -100 90 0 90 0 0 100 0 100 -90 0 -90 0 0 -100z m100
78 c0 -5 -20 -8 -45 -8 -25 0 -45 4 -45 9 0 5 20 8 45 7 25 0 45 -4 45 -8z
m-42 -25 c-10 -2 -26 -2 -35 0 -10 3 -2 5 17 5 19 0 27 -2 18 -5z m85 0 c-13
-2 -33 -2 -45 0 -13 2 -3 4 22 4 25 0 35 -2 23 -4z m-95 -50 c-3 -30 -25 -42
-34 -19 -9 22 2 46 21 46 12 0 15 -8 13 -27z m80 -60 c-21 -2 -55 -2 -75 0
-21 2 -4 4 37 4 41 0 58 -2 38 -4z"/>
<path d="M1220 536 c0 -8 5 -18 10 -21 6 -3 10 3 10 14 0 12 -4 21 -10 21 -5
0 -10 -6 -10 -14z"/>
<path d="M1400 530 l0 -100 90 0 90 0 0 100 0 100 -90 0 -90 0 0 -100z m67 76
c5 -4 4 -7 -2 -6 -5 1 -19 1 -30 0 -11 -2 0 -6 25 -10 l45 -7 -47 -1 c-40 -2
-48 1 -48 16 0 12 7 17 25 17 14 -1 28 -5 32 -9z m83 2 c0 -5 -16 -8 -35 -8
-19 0 -35 3 -35 8 0 4 16 7 35 7 19 0 35 -3 35 -7z m3 -25 c-7 -2 -21 -2 -30
0 -10 3 -4 5 12 5 17 0 24 -2 18 -5z m-116 -30 c-4 -3 -2 -12 4 -19 12 -15 4
-34 -14 -34 -7 0 -6 4 3 11 11 8 12 12 3 16 -16 6 -17 33 -1 33 6 0 8 -3 5 -7z
m91 -80 c-21 -2 -55 -2 -75 0 -21 2 -4 4 37 4 41 0 58 -2 38 -4z"/>
<path d="M1640 530 l0 -100 95 0 95 0 0 100 0 100 -95 0 -95 0 0 -100z m140
78 c0 -5 -26 -9 -57 -10 l-58 -1 45 -6 45 -7 -35 -4 c-53 -8 -72 -2 -61 18 7
13 23 17 65 17 31 0 56 -3 56 -7z m-100 -58 c-10 -6 -11 -10 -2 -10 6 0 12 -9
12 -20 0 -12 -7 -20 -17 -20 -16 0 -16 2 -3 11 11 8 12 12 3 16 -19 7 -15 33
5 33 14 0 15 -2 2 -10z m88 -77 c-21 -2 -55 -2 -75 0 -21 2 -4 4 37 4 41 0 58
-2 38 -4z"/>
<path d="M2050 530 l0 -100 90 0 90 0 0 100 0 100 -90 0 -90 0 0 -100z m130
76 c0 -8 10 -17 23 -19 12 -2 2 -5 -23 -5 -34 0 -40 2 -25 8 l20 9 -20 1 c-11
1 -37 1 -57 0 -21 -1 -38 3 -38 8 0 5 27 10 60 11 47 1 60 -2 60 -13z m-62
-23 c-10 -2 -28 -2 -40 0 -13 2 -5 4 17 4 22 1 32 -1 23 -4z m-17 -54 c5 -22
3 -26 -15 -25 -15 1 -22 9 -24 29 -3 23 0 28 14 25 10 -1 21 -15 25 -29z m54
1 c0 -36 -29 -33 -33 3 -3 23 0 28 15 25 12 -2 18 -12 18 -28z m23 -57 c-21
-2 -55 -2 -75 0 -21 2 -4 4 37 4 41 0 58 -2 38 -4z"/>
<path d="M2070 530 c0 -11 5 -20 10 -20 6 0 10 9 10 20 0 11 -4 20 -10 20 -5
0 -10 -9 -10 -20z"/>
<path d="M2130 529 c0 -11 5 -17 10 -14 6 3 10 13 10 21 0 8 -4 14 -10 14 -5
0 -10 -9 -10 -21z"/>
<path d="M799 160 c-58 -17 -105 -66 -124 -127 -6 -21 -3 -23 29 -23 20 0 36
4 36 9 0 21 52 70 80 76 26 6 30 11 30 41 0 36 -5 38 -51 24z"/>
</g>
</svg>
