<?xml version="1.0" standalone="no"?>
<!DOCTYPE svg PUBLIC "-//W3C//DTD SVG 20010904//EN"
 "http://www.w3.org/TR/2001/REC-SVG-20010904/DTD/svg10.dtd">
<svg version="1.0" xmlns="http://www.w3.org/2000/svg"
 width="2638.000000pt" height="1024.000000pt" viewBox="0 0 2638.000000 1024.000000"
 preserveAspectRatio="xMidYMid meet">

<g transform="translate(0.000000,1024.000000) scale(0.100000,-0.100000)"
fill="#000000" stroke="none">
<path d="M23 10198 c14 -24 199 -344 412 -713 212 -368 390 -673 393 -677 6
-6 832 1410 832 1426 0 3 -374 6 -831 6 l-831 0 25 -42z"/>
<path d="M7793 10228 c-10 -13 -2125 -3674 -2131 -3690 -2 -4 960 -8 2138 -8
1782 0 2141 2 2137 13 -5 13 -2079 3609 -2116 3670 -14 22 -20 25 -28 15z"/>
<path d="M6523 4879 c-128 -13 -272 -51 -372 -101 -67 -33 -104 -59 -167 -122
-129 -130 -175 -246 -175 -446 0 -189 37 -285 153 -402 119 -120 291 -189 668
-268 441 -93 612 -166 670 -284 50 -104 47 -269 -7 -369 -103 -189 -391 -284
-749 -248 -189 20 -310 68 -404 162 -59 59 -90 121 -104 210 l-10 69 -114 0
-113 0 6 -57 c11 -101 26 -156 66 -239 31 -67 52 -95 117 -155 159 -150 377
-219 689 -219 235 0 386 30 541 106 157 78 255 189 314 354 26 70 36 270 19
353 -20 95 -73 187 -149 259 -137 129 -249 173 -702 273 -432 96 -581 166
-643 304 -27 60 -30 231 -4 300 42 110 157 209 297 255 149 49 406 57 590 20
154 -32 294 -124 352 -231 21 -39 47 -140 48 -185 0 -5 50 -8 110 -8 l110 0 0
53 c-1 129 -59 273 -151 372 -135 144 -320 221 -589 245 -129 11 -166 11 -297
-1z"/>
<path d="M18345 4880 c-597 -45 -981 -384 -1081 -955 -24 -136 -24 -423 0
-555 97 -543 430 -865 978 -946 151 -22 441 -15 573 15 235 52 407 138 554
277 169 159 273 359 328 630 28 138 25 483 -5 621 -96 442 -341 723 -742 851
-166 53 -403 77 -605 62z m300 -230 c167 -19 292 -54 404 -116 235 -129 377
-344 426 -648 19 -116 19 -353 0 -476 -60 -400 -292 -657 -670 -745 -239 -55
-574 -38 -783 41 -199 74 -373 238 -458 430 -113 257 -124 660 -25 951 74 215
243 397 451 484 173 73 430 104 655 79z"/>
<path d="M7970 3645 l0 -1215 115 0 115 0 1 433 0 432 138 143 138 143 462
-575 462 -576 146 0 c115 0 143 3 136 13 -6 6 -243 301 -527 655 -285 354
-516 647 -514 652 2 8 484 517 950 1005 l101 106 -159 -3 -159 -3 -588 -617
-587 -618 0 620 0 620 -115 0 -115 0 0 -1215z"/>
<path d="M9896 4848 c5 -7 216 -311 471 -676 l463 -662 0 -540 0 -540 110 0
110 0 0 534 0 534 470 677 c259 373 470 679 470 681 0 2 -62 4 -137 4 l-138
-1 -335 -486 c-184 -267 -358 -519 -386 -560 l-52 -74 -388 560 -389 561 -138
0 c-108 0 -137 -3 -131 -12z"/>
<path d="M13609 4838 c15 -38 1040 -2346 1055 -2376 28 -55 124 -71 170 -30
20 19 224 467 468 1028 17 40 21 43 30 26 6 -10 111 -246 234 -525 152 -344
232 -513 249 -528 39 -34 105 -32 144 5 22 20 156 314 555 1217 289 655 526
1194 526 1198 0 4 -55 6 -122 5 l-121 -3 -448 -1010 c-246 -555 -451 -1016
-456 -1024 -6 -10 -56 91 -166 340 -86 195 -228 516 -316 714 l-159 360 -126
3 c-69 1 -126 1 -126 -2 0 -3 45 -104 100 -225 l100 -220 -217 -491 c-120
-269 -220 -490 -223 -490 -3 0 -208 461 -455 1023 l-451 1022 -127 3 -127 3 9
-23z"/>
<path d="M20118 4844 c-61 -33 -58 37 -58 -1244 l0 -1170 115 0 115 0 0 490 0
490 373 0 372 0 394 -490 393 -490 144 0 c79 0 144 2 144 4 0 2 -177 224 -394
493 l-394 488 31 9 c167 45 251 91 358 196 87 86 146 179 185 295 24 71 28 95
28 210 1 148 -14 214 -71 332 -93 190 -293 344 -505 387 -112 23 -1188 23
-1230 0z m1208 -228 c179 -48 327 -200 365 -376 16 -76 6 -212 -21 -280 -53
-134 -172 -248 -308 -296 l-67 -24 -502 0 -503 0 0 495 0 495 493 0 c384 0
503 -3 543 -14z"/>
<path d="M22400 3690 c0 -1019 2 -1175 15 -1200 33 -63 -12 -60 791 -60 l731
0 31 104 c18 57 32 107 32 110 0 3 -308 6 -685 6 l-685 0 0 1105 0 1105 -115
0 -115 0 0 -1170z"/>
<path d="M24475 4827 l-35 -35 0 -1147 0 -1147 34 -34 34 -34 389 0 c411 0
506 7 663 51 548 154 858 647 810 1289 -26 338 -127 579 -324 775 -138 137
-329 236 -551 286 -93 21 -130 22 -543 26 l-443 4 -34 -34z m851 -198 c164
-18 304 -61 422 -130 73 -44 217 -188 261 -261 108 -186 157 -449 133 -715
-15 -165 -41 -264 -102 -388 -124 -255 -343 -408 -660 -462 -72 -12 -171 -16
-405 -17 l-310 -1 -3 993 -2 992 285 0 c157 0 329 -5 381 -11z"/>
</g>
</svg>
